<?xml version="1.0" encoding="utf-8"?>
<!-- Generator: Adobe Illustrator 28.2.0, SVG Export Plug-In . SVG Version: 6.00 Build 0)  -->
<svg version="1.1" id="katman_1" xmlns="http://www.w3.org/2000/svg" xmlns:xlink="http://www.w3.org/1999/xlink" x="0px" y="0px"
	 viewBox="0 0 1024 1024" style="enable-background:new 0 0 1024 1024;" xml:space="preserve">
<style type="text/css">
	.st0{fill:#223040;}
	.st1{fill:#3A4955;}
	.st2{fill:url(#SVGID_1_);}
	.st3{fill:#FCFCFD;}
	.st4{fill:#1C2E47;}
	.st5{fill:#1B2E47;}
	.st6{fill:#FC9E00;}
	.st7{fill:#FB9E00;}
	.st8{fill:#1E314A;}
	.st9{fill:#D84F1A;}
	.st10{fill:#D84F19;}
	.st11{fill:#E9711B;}
	.st12{fill:#1D314A;}
	.st13{fill:#FC9D00;}
	.st14{fill:#EB8417;}
	.st15{fill:#FB9D00;}
	.st16{fill:#EB8616;}
	.st17{fill:#EB7519;}
	.st18{fill:#ED8417;}
	.st19{fill:#1C304B;}
	.st20{fill:#EC8018;}
	.st21{fill:#ED8715;}
	.st22{fill:#ED8817;}
	.st23{fill:#F48F07;}
	.st24{fill:#F69703;}
	.st25{fill:#F59906;}
	.st26{fill:#EC7415;}
	.st27{fill:#F6E204;}
	.st28{fill:#F6E403;}
	.st29{fill:#F8E503;}
	.st30{fill:#F4E102;}
	.st31{fill:#F7AA09;}
	.st32{fill:#F5AA0A;}
	.st33{fill:#AD998E;}
	.st34{fill:#857570;}
</style>
<path class="st0" d="M546,842c-3.8,7.8-6.6,18.8-10,25c-11.8,21.5-39.1,20-50-1c-3.6-6.8-6-16.9-10-25
	c-38.8-79-92.6-145.6-141-218.5c-30.5-45.9-87.6-125.6-99-177c-1.1-4.8-2.8-23.9-4-33.5c-0.4-2.8-1.9-5.3-4.2-6.8
	c-2.6-1.7-4.6-5.5,2-14.3c1.4-1.8,2.2-3.9,2.2-6.2c0.3-26.8,6.8-52.8,16-77.7c-1.1,13.8-16.6,44-9,56.5c6.3,10.4,35.5,5.3,50.8,6.5
	c3.3,0.3,6.3-2,7-5.3c11.6-52.2,42-99.8,85.7-130.8c126.4-89.6,302.2-23.4,339.2,124.1c0.8,3.1,3.6,5.2,6.8,5.1
	c5.2-0.2,10.1-0.3,15.1,0.4c4.4,0.7,8.2-3.2,7.5-7.7c-15.4-98.5-84.4-167.5-179.6-195c-22.4-6.5-47.6-8.4-68.9-18.2
	c-6.5-3-4.4-12.7,2.7-12.8C640,128.7,760.8,218.8,786,354.5c1,5.6,2.9,36.4,4,38c0.4,0.6,1.3,1,2.3,1.4c5.7,2,5.9,9.9,0.4,12.4
	c-0.1,0-0.1,0.1-0.2,0.1c-2.2,1-3.5,3.2-3.6,5.6c-1.5,28.5-8.9,58.3-21.9,83.5C704.9,616.1,605.9,718.7,546,842z M499.5,212
	C435,215,368.4,256.4,337,312.5c-5.1,9.1-23.4,51.9-20,60c1.3,3,16.4,3.8,18,9c0.5,1.5,0.4,29,0,31c-1.5,6.5-18.2,10.5-19,17
	c-0.3,2.4,8.4,31.6,10,36c59,157.9,284.3,170.1,360,19c4-7.9,21.2-54.4,19-60c-0.9-2.3-12.9-0.5-16-9c-2-5.4-1.5-29.9,1-35
	c2.7-5.4,13-7.9,13.5-8.5c5.2-6.6-19.2-58-24.5-66.5C641.8,245.9,569.8,208.7,499.5,212z M294.3,390.9c-2.5,8.8-2.5,19.8,6,21.2
	c3.6,0.6,6.9-1.9,7.5-5.4c0.9-4.6,0.9-11.2-0.7-16C305.1,384.4,296.1,384.6,294.3,390.9z M717.5,386c-3.8,1.1-9.4,31.5,7,27
	c5.1-1.4,7-18.7,5.5-22.5C729.3,388.8,719.3,385.5,717.5,386z M318.5,387c-7.5,2.6-7.1,30.8,8,24C328,410.3,333.6,381.8,318.5,387z
	 M706.9,391.9c-2.9-6.2-12.1-4.6-12.7,2.2c-0.9,9.4-2.2,21.2,10.4,16.9C708.4,409.7,710,398.6,706.9,391.9z M276.5,389
	c-6,1.6-7,13.1-3,19c3,4.4,9.6,3.5,11.7-1.4C288.5,398.7,287.2,386.2,276.5,389z M742.9,388.6c-2.6,0-5,1.3-6.2,3.6
	c-3.4,6.8-0.7,20,5.8,19.8C752.9,411.7,755.4,388.8,742.9,388.6z M254.5,390c-5.5,1.1-9.6,14.2-2,18
	C268,415.8,268.1,387.2,254.5,390z M766.5,390c-0.5,0-2.5,0.6-4.6,1.4c-3.1,1.2-4.8,4.6-4,7.8C764.8,427.1,783.6,390.9,766.5,390z
	 M234.5,393c-9.5,0.5-5.9,16.1,3,14C243.9,405.5,243.2,392.5,234.5,393z M784.5,393c-4.8,1.1-5.7,12.3,0,14
	C796.1,410.4,795.1,390.6,784.5,393z M733.6,440.7c-3.5-4.1-10.3-2.6-11.6,2.6c-19.2,76.4-79.2,141.2-156.5,160.7
	C445.3,634.2,328.4,561.7,299,444.2c-1.3-5.3-8.1-6.9-11.6-2.7c-13.5,15.9-9.8,34.3-1.4,55.1c28.3,70.3,140,215.9,202.5,258.5
	c16,10.9,19.8,14.9,37,5c61.6-35.3,179.1-192.3,207.5-258.5c8.9-20.8,15.7-37.8,2-59C734.8,442.2,734.3,441.5,733.6,440.7z"/>
<path class="st1" d="M484,131c23.9,20.8,58.1,21.5,87.5,30c98.5,28.4,168.9,101.1,181,205c-10-3.8-19.1-3-29.5-2.5
	C688.9,212.2,510.4,143.3,382.5,234c-45.5,32.2-76.5,82.4-87,137c-12.1-4-49.3,4.4-56.5-7.5c-7.6-12.5,7.9-42.7,9-56.5
	C284.1,209.1,380.2,139.4,484,131z M342.5,216c-10.9,1.8-36.2,31.9-41,43c7.3-5.7,52.8-32.2,50.5-40.5
	C351.2,215.7,345.1,215.6,342.5,216z M278.5,276c-6.6,2-7.1,13.8,0,17C293.4,299.6,296.5,270.5,278.5,276z"/>
<linearGradient id="SVGID_1_" gradientUnits="userSpaceOnUse" x1="529.2682" y1="803.5596" x2="491.7053" y2="445.5256" gradientTransform="matrix(1 0 0 -1 0 1026)">
	<stop  offset="0" style="stop-color:#F58E10"/>
	<stop  offset="1" style="stop-color:#D94F18"/>
</linearGradient>
<path class="st2" d="M499.5,212c70.3-3.3,142.3,33.9,179.5,93.5c5.3,8.5,29.7,59.9,24.5,66.5c-0.5,0.6-10.8,3.1-13.5,8.5
	c-2.5,5.1-3,29.6-1,35c3.1,8.5,15.1,6.7,16,9c2.2,5.6-15,52.1-19,60c-75.7,151.1-301,138.9-360-19c-1.6-4.4-10.3-33.6-10-36
	c0.8-6.5,17.5-10.5,19-17c0.4-2,0.5-29.5,0-31c-1.6-5.2-16.7-6-18-9c-3.4-8.1,14.9-50.9,20-60C368.4,256.4,435,215,499.5,212z
	 M510.5,252c-3.6,0.7-9.8,8.8-10.5,12.5v237c0.5,11,14.9,6,22.5,9.5l2-134l11.5,4.5l2,93c9.7,17.7,18.8,3.8,21-10
	c4.3-26.7,0.6-57.9,2-85c1-3.1,12.9-8.2,14-5c0.5,11.8-9.5,75.2,16.5,63.5c9.4-4.2,5.8-18.6,7.5-22.5c0.6-1.4,9.9-2.8,10.5-2.5
	c3.8,2-2.9,39.6,21,32c7.4-2.4,13.2-18.8,19-16c1.4,0.7,7.2,27.9,20.5,12.5c4.6-5.4,5.8-62.8,4-71c-0.8-3.8-7.7-10.3-11.5-10.5
	c-21-1.1-9.4,44.2-13.5,54.5c-0.7,1.7-11.6,5.2-12.5,4.5c-2.9-11.7,3-55.7-8-61c-22.5-10.9-13,37.8-15.5,43.5
	c-1.1,2.5-11.5,1.3-12.5,0.5c-5.7-4.2,4.6-64.6-18-60c-8.9,1.8-5,14.8-8,17c-0.6,0.4-13,3.9-13.5,2.5c-2.2-11.1,2.4-76.1-19.5-65.5
	c-1,0.5-4.2,4.5-4.5,5.5c-2.5,9.7,1,49.3-2,55c-0.8,1.4-10,1-11.5,4.5c-0.6-26.1-0.9-52.4-0.5-78.5
	C523.2,272.6,531.1,247.7,510.5,252z M476.5,288c-2.1,0.2-7.4,4.7-8.5,6.5c-5.3,8.7-5.6,59.6-6,73c-0.3,11.9,3,41.3,1,50
	c-1.1,4.8-8.9,11.8-13,6l1-97c-7.5-10.8-16.5-8.7-23,2l-4,74c-1.5,3.9-10.8,3-12,0c-3.1-7.7,2.2-47.7-1-58
	c-1.3-4.2-10.9-5.5-14.5-4.5c-5.1,1.4-7.9,11.8-8.5,16.5c-1.5,11.4-1.9,65.6,0,76c4,21.7,27.7,6.2,23-11c20.8-0.1,19.7-8.6,21-26
	c1.3-18.1-1-37.7,0-56c1.9-4.7,9.6-0.8,11,2c5.8,11.4-3.8,79.2,1,100c0.7,3,3.7,9.8,6.5,11.5c2.6,1.5,10.6,1.5,11.5,3.5
	c2.2,5.1-2.3,23.3,10.5,25.5c13.5,2.3,12.8-13.1,13.5-22.5c4.2-52.9-3.8-110.6,1-164C486,291.2,481,287.6,476.5,288z M358.5,361
	c-1.1,0.2-5.8,4.3-6.5,5.5c-4.6,7.4-4.6,63.8,0,71c3.8,6,11,7.5,16,2c5.9-6.5,5.8-65.5,1-73C367,363.3,362.5,360.3,358.5,361z"/>
<path class="st3" d="M342.5,216c2.6-0.4,8.7-0.3,9.5,2.5c2.3,8.3-43.2,34.8-50.5,40.5C306.3,247.9,331.6,217.8,342.5,216z"/>
<path class="st4" d="M121.5,239c9.1-0.9,15.7,3.9,18.5,12.5c0.9,2.9-1.1,6.7-1,7c0.9,2.6,12.6-0.2,17,7c2.8,4.7,1.5,13.3,2,14
	c0.8,1.1,14.5-1.7,18,8c1.2,3.4-0.2,9.5,0,10c1,2.4,22.1-0.6,24,15c1.3,10.7-8,15.9-12,24c-11.8,23.6-14.3,46.4-3,71
	c5.3,11.6,19,19.2,16,33c-2.9,13.5-18.1,7.3-21.5,8.5c-3.4,1.2,1.5,12.4-6,17c-4.9,3.1-14.1,1.4-15,2c-1.4,1,2.3,14.7-8,19
	c-2.6,1.1-9.6,0.7-10,1c-1,0.7,2.1,17.8-12,20c-21,3.3-55.9-43.4-64.5-60.5c-28.5-56.3-22.8-127.7,17-177
	C87.9,262,110.9,240,121.5,239z M121.5,243c-9.2,0.8-29.4,20.2-35.5,27.5c-44,52.2-48.1,132-11,189c7.5,11.5,36.4,46,50.5,44.5
	c7-0.8,12.3-8.9,9.5-15.5c-0.9-2.1-28.5-23.4-34-30c-41.8-50.6-38.3-128.2,6-176c5-5.4,28.5-22.7,29-27
	C136.9,247.8,128.9,242.3,121.5,243z M139.5,264c-10,2.1-38.2,37.7-43.5,47.5C67.7,363.8,78.7,431.6,123.5,471
	c7,6.2,21.4,20.2,29.5,8.5c7.5-10.9-18.5-25.8-26-35c-33.1-40.5-33.2-97.3-2-139c4.3-5.8,28.6-27,29-29
	C155.7,268.1,147.2,262.4,139.5,264z M160.5,285c-12.3,1.5-35.5,33.3-40.5,44.5c-18.1,40.2-7.6,101.1,29.5,127.5
	c6.5,4.6,22.1,12.5,24.5-0.5c1.7-8.9-15.4-19-21-26c-27-33.8-26.5-82.5,1-116c2.8-3.4,17.6-15.5,18-17
	C174.1,290,167.7,284.1,160.5,285z M179.5,304c-9,1.5-24.4,21.3-28.5,29.5c-15.4,30.4-12.1,65.6,8,93c6.1,8.3,29.3,31.1,37,13
	c4.2-9.9-10.3-19.2-15-27c-16-26.5-13.8-55.7,3-81c2-3,8.6-7.3,10-10C199.4,310.8,190.6,302.1,179.5,304z"/>
<path class="st5" d="M894.5,239c18.7-2.9,47.4,32,56.5,46.5c36.8,58.6,32.1,136.1-11,190c-9.3,11.7-36.4,41.3-52.5,29.5
	c-7-5.1-3.8-11.7-5.5-15.5c-1.3-2.9-6.7-0.7-8.5-1.5c-12.8-5.4-8.4-17.9-10-19c-0.9-0.6-8,0.6-10,0c-13.4-3.9-8-19.3-9-20
	c-1.5-1-21.9,6.1-24.5-10.5c-1.9-12,9.8-18.7,15-28c12.4-22.1,13.1-47.4,2-70c-4.9-9.9-17.6-18.6-14-31c3.7-12.7,16.2-8.1,21.5-10.5
	c2.9-1.3-1.7-14,11-19c1.6-0.6,6.4,0.6,8,0c2.6-1.1-3.9-14,13-21c1.2-0.5,5.3,0.5,6,0C883.5,258.3,880.9,241.1,894.5,239z
	 M894.5,243c-4.9,1.1-8.6,8.7-7.5,13.5c0.8,3.5,24.3,21.7,29,27c45.2,50.3,46,132.6-1,182c-5.4,5.7-28.5,20.9-29,26
	c-1.8,18.5,20.8,10.1,29.5,3.5c63.9-48.4,72.6-146.9,29.5-211.5C936.9,271.3,910.6,239.4,894.5,243z M875.5,264
	c-3.6,0.9-8,8-7.5,11.5c0.4,2.9,22.2,21.3,26,26c35,42.9,34.6,105.3-2,147c-4.1,4.7-24.5,20.5-25,24c-1.1,7.6,8.6,13.2,15.5,11.5
	c9.4-2.3,40.5-41.4,45.5-51.5c25.8-52.3,11.8-131.4-38.5-164.5C885,265,881.3,262.6,875.5,264z M858.5,285
	c-4.8,0.8-8.5,7.7-7.5,12.5c0.3,1.5,16.1,16.1,19,20c27,36.5,24.3,84.9-5,119c-5.5,6.4-22.9,13.3-15,24c10,13.6,34-13.5,40-22
	c25-35.1,28.1-80.4,7-118C891.7,311.1,870,283.1,858.5,285z M834.5,304c-1.9,0.4-7.1,5.6-7.5,7.5c-2.4,10.1,11.1,18.4,16,27
	c10.7,18.7,11.8,42.9,4,63c-4.9,12.7-32,33.4-16.5,42.5c18.3,10.8,42.4-30.4,46.5-44.5c4.2-14.7,4.6-33.2,1-48
	C874.2,335.8,853.9,299.4,834.5,304z"/>
<path class="st6" d="M121.5,243c7.4-0.7,15.4,4.8,14.5,12.5c-0.5,4.3-24,21.6-29,27c-44.3,47.8-47.8,125.4-6,176
	c5.5,6.6,33.1,27.9,34,30c2.8,6.6-2.5,14.7-9.5,15.5c-14.1,1.5-43-33-50.5-44.5c-37.1-57-33-136.8,11-189
	C92.1,263.2,112.3,243.8,121.5,243z"/>
<path class="st7" d="M894.5,243c16.1-3.6,42.4,28.3,50.5,40.5c43.1,64.6,34.4,163.1-29.5,211.5c-8.7,6.6-31.3,15-29.5-3.5
	c0.5-5.1,23.6-20.3,29-26c47-49.4,46.2-131.7,1-182c-4.7-5.3-28.2-23.5-29-27C885.9,251.7,889.6,244.1,894.5,243z"/>
<path class="st8" d="M510.5,252c20.6-4.3,12.7,20.6,12.5,30.5c-0.4,26.1-0.1,52.4,0.5,78.5c1.5-3.5,10.7-3.1,11.5-4.5
	c3-5.7-0.5-45.3,2-55c0.3-1,3.5-5,4.5-5.5c21.9-10.6,17.3,54.4,19.5,65.5c0.5,1.4,12.9-2.1,13.5-2.5c3-2.2-0.9-15.2,8-17
	c22.6-4.6,12.3,55.8,18,60c1,0.8,11.4,2,12.5-0.5c2.5-5.7-7-54.4,15.5-43.5c11,5.3,5.1,49.3,8,61c0.9,0.7,11.8-2.8,12.5-4.5
	c4.1-10.3-7.5-55.6,13.5-54.5c3.8,0.2,10.7,6.7,11.5,10.5c1.8,8.2,0.6,65.6-4,71c-13.3,15.4-19.1-11.8-20.5-12.5
	c-5.8-2.8-11.6,13.6-19,16c-23.9,7.6-17.2-30-21-32c-0.6-0.3-9.9,1.1-10.5,2.5c-1.7,3.9,1.9,18.2-7.5,22.5
	c-26,11.7-16-51.7-16.5-63.5c-1.1-3.2-13,1.9-14,5c-1.4,27.1,2.3,58.3-2,85c-2.2,13.8-11.3,27.7-21,10l-2-93l-11.5-4.5l-2,134
	c-7.6-3.5-22,1.5-22.5-9.5v-237C500.7,260.8,506.9,252.7,510.5,252z M506.5,271L505,492.5c1.8,4.3,4.4,8.5,9.5,7.5
	c5.5-73.8,1.1-148.4,2.5-222.5C513.7,273.8,511.5,271.7,506.5,271z M543.5,309c-7,3.3,2.9,138-0.5,155.5c2.9,4.4,7.3,2.1,9-2
	c5.6-13.2,3.8-98.5,3-118c-0.2-4.5-1.2-31.4-2-33C552,309.7,545.1,308.3,543.5,309z M582.5,356l-1.5,67.5c0.4,0.6,9.7,0.9,10.5,0.5
	c3.5-1.6,0.9-58.1,0.5-65.5C589.7,354.9,586.4,356.1,582.5,356z M619.5,371c-2.3,1.7-1.6,54.8-0.5,57.5c0.9,2.2,7.7,3.3,9.5,2.5
	c2.7-1.2,2.7-55.8,1.5-58.5C629.1,370.4,620,370.6,619.5,371z M656.5,374c1.4,10.5-3.5,45.9-0.5,53.5c1.8,4.5,10.3,4,12-4
	c0.7-3.2,0.9-44.8,0-47C667,374,658.9,373.8,656.5,374z"/>
<path class="st9" d="M139.5,264c7.7-1.6,16.2,4.1,14.5,12.5c-0.4,2-24.7,23.2-29,29c-31.2,41.7-31.1,98.5,2,139
	c7.5,9.2,33.5,24.1,26,35c-8.1,11.7-22.5-2.3-29.5-8.5C78.7,431.6,67.7,363.8,96,311.5C101.3,301.7,129.5,266.1,139.5,264z"/>
<path class="st10" d="M875.5,264c5.8-1.4,9.5,1,14,4c50.2,33.1,64.3,112.2,38.5,164.5c-5,10.1-36.1,49.2-45.5,51.5
	c-6.9,1.7-16.6-3.9-15.5-11.5c0.5-3.5,20.9-19.3,25-24c36.6-41.7,37-104.1,2-147c-3.8-4.7-25.6-23.1-26-26
	C867.5,272,871.9,264.9,875.5,264z"/>
<path class="st11" d="M506.5,271c5,0.7,7.2,2.8,10.5,6.5c-1.4,74.1,3,148.7-2.5,222.5c-5.1,1-7.7-3.2-9.5-7.5L506.5,271z"/>
<path class="st3" d="M278.5,276c18-5.5,14.9,23.6,0,17C271.4,289.8,271.9,278,278.5,276z"/>
<path class="st7" d="M160.5,285c7.2-0.9,13.6,5,11.5,12.5c-0.4,1.5-15.2,13.6-18,17c-27.5,33.5-28,82.2-1,116c5.6,7,22.7,17.1,21,26
	c-2.4,13-18,5.1-24.5,0.5c-37.1-26.4-47.6-87.3-29.5-127.5C125,318.3,148.2,286.5,160.5,285z"/>
<path class="st7" d="M858.5,285c11.5-1.9,33.2,26.1,38.5,35.5c21.1,37.6,18,82.9-7,118c-6,8.5-30,35.6-40,22
	c-7.9-10.7,9.5-17.6,15-24c29.3-34.1,32-82.5,5-119c-2.9-3.9-18.7-18.5-19-20C850,292.7,853.7,285.8,858.5,285z"/>
<path class="st12" d="M476.5,288c4.5-0.4,9.5,3.2,10.5,7.5c-4.8,53.4,3.2,111.1-1,164c-0.7,9.4,0,24.8-13.5,22.5
	c-12.8-2.2-8.3-20.4-10.5-25.5c-0.9-2-8.9-2-11.5-3.5c-2.8-1.7-5.8-8.5-6.5-11.5c-4.8-20.8,4.8-88.6-1-100c-1.4-2.8-9.1-6.7-11-2
	c-1,18.3,1.3,37.9,0,56c-1.3,17.4-0.2,25.9-21,26c4.7,17.2-19,32.7-23,11c-1.9-10.4-1.5-64.6,0-76c0.6-4.7,3.4-15.1,8.5-16.5
	c3.6-1,13.2,0.3,14.5,4.5c3.2,10.3-2.1,50.3,1,58c1.2,3,10.5,3.9,12,0l4-74c6.5-10.7,15.5-12.8,23-2l-1,97c4.1,5.8,11.9-1.2,13-6
	c2-8.7-1.3-38.1-1-50c0.4-13.4,0.7-64.3,6-73C469.1,292.7,474.4,288.2,476.5,288z M473.5,304c-0.7,0.2-2.5,2.9-3.5,3.5
	c-0.3,42,0.4,84,0,126c-0.1,6.4-6.7,38.2,7.5,32.5l3.5-158.5C478.8,305.1,477.1,303,473.5,304z M394.5,354
	c-3.2,1.2-0.6,60.8-1.5,68.5c1.9,3.5,3.2,5.2,7.5,4.5c0.4-0.1,4.4-6,4.5-6.5c0.9-3.6,1.3-61.1,0-64C404.5,355.3,395,353.8,394.5,354
	z"/>
<path class="st13" d="M179.5,304c11.1-1.9,19.9,6.8,14.5,17.5c-1.4,2.7-8,7-10,10c-16.8,25.3-19,54.5-3,81c4.7,7.8,19.2,17.1,15,27
	c-7.7,18.1-30.9-4.7-37-13c-20.1-27.4-23.4-62.6-8-93C155.1,325.3,170.5,305.5,179.5,304z"/>
<path class="st14" d="M473.5,304c3.6-1,5.3,1.1,7.5,3.5L477.5,466c-14.2,5.7-7.6-26.1-7.5-32.5c0.4-42-0.3-84,0-126
	C471,306.9,472.8,304.2,473.5,304z"/>
<path class="st15" d="M834.5,304c19.4-4.6,39.7,31.8,43.5,47.5c3.6,14.8,3.2,33.3-1,48c-4.1,14.1-28.2,55.3-46.5,44.5
	c-15.5-9.1,11.6-29.8,16.5-42.5c7.8-20.1,6.7-44.3-4-63c-4.9-8.6-18.4-16.9-16-27C827.4,309.6,832.6,304.4,834.5,304z"/>
<path class="st16" d="M543.5,309c1.6-0.7,8.5,0.7,9.5,2.5c0.8,1.6,1.8,28.5,2,33c0.8,19.5,2.6,104.8-3,118c-1.7,4.1-6.1,6.4-9,2
	C546.4,447,536.5,312.3,543.5,309z"/>
<path class="st17" d="M394.5,354c0.5-0.2,10,1.3,10.5,2.5c1.3,2.9,0.9,60.4,0,64c-0.1,0.5-4.1,6.4-4.5,6.5c-4.3,0.7-5.6-1-7.5-4.5
	C393.9,414.8,391.2,355.2,394.5,354z"/>
<path class="st18" d="M582.5,356c3.9,0.1,7.2-1.1,9.5,2.5c0.4,7.4,3,63.9-0.5,65.5c-0.8,0.4-10.1,0.1-10.5-0.5L582.5,356z"/>
<path class="st19" d="M358.5,361c4-0.7,8.5,2.3,10.5,5.5c4.8,7.5,4.9,66.5-1,73c-5,5.5-12.2,4-16-2c-4.6-7.2-4.6-63.6,0-71
	C352.7,365.3,357.4,361.2,358.5,361z M357.5,373c-5.2,2-1.3,44.6-2.5,51.5c2.3,2.6,3.7,4.2,7.5,3.5c9-13.2,2.5-36.3,4.5-52.5
	C366,372.9,359.7,372.2,357.5,373z"/>
<path class="st20" d="M619.5,371c0.5-0.4,9.6-0.6,10.5,1.5c1.2,2.7,1.2,57.3-1.5,58.5c-1.8,0.8-8.6-0.3-9.5-2.5
	C617.9,425.8,617.2,372.7,619.5,371z"/>
<path class="st21" d="M357.5,373c2.2-0.8,8.5-0.1,9.5,2.5c-2,16.2,4.5,39.2-4.5,52.5c-3.8,0.7-5.2-0.9-7.5-3.5
	C356.2,417.6,352.3,375,357.5,373z"/>
<path class="st22" d="M656.5,374c2.4-0.2,10.5,0,11.5,2.5c0.9,2.2,0.7,43.8,0,47c-1.7,8-10.2,8.5-12,4
	C653,419.9,657.9,384.5,656.5,374z"/>
<path class="st23" d="M296.5,385c14.9-6.3,13.2,25.3,9,27C289,415.1,291.8,395,296.5,385z"/>
<path class="st24" d="M717.5,386c1.8-0.5,11.8,2.8,12.5,4.5c1.5,3.8-0.4,21.1-5.5,22.5C708.1,417.5,713.7,387.1,717.5,386z"/>
<path class="st25" d="M318.5,387c15.1-5.2,9.5,23.3,8,24C311.4,417.8,311,389.6,318.5,387z"/>
<path class="st26" d="M694.5,388c16.6-7.5,16.4,20.8,10,23C688.9,416.3,694.6,397,694.5,388z"/>
<path class="st27" d="M276.5,389c13-3.4,12.2,15.7,6,22C269.7,415.2,267.7,391.3,276.5,389z"/>
<path class="st28" d="M739.5,389c16.3-4.2,14.2,22.7,3,23C734.6,412.2,732.4,393.1,739.5,389z"/>
<path class="st29" d="M254.5,390c13.6-2.8,13.5,25.8-2,18C244.9,404.2,249,391.1,254.5,390z"/>
<path class="st30" d="M766.5,390c17.9,1-3.7,40.8-9.5,4.5C757.4,392.8,765.5,389.9,766.5,390z"/>
<path class="st31" d="M234.5,393c8.7-0.5,9.4,12.5,3,14C228.6,409.1,225,393.5,234.5,393z"/>
<path class="st32" d="M784.5,393c10.6-2.4,11.6,17.4,0,14C778.8,405.3,779.7,394.1,784.5,393z"/>
<path class="st1" d="M722,443.3c1.3-5.3,8.1-6.8,11.6-2.6c0.7,0.8,1.2,1.5,1.4,1.8c13.7,21.2,6.9,38.2-2,59
	C704.6,567.7,587.1,724.7,525.5,760c-17.2,9.9-21,5.9-37-5C426,712.4,314.3,566.8,286,496.5c-8.4-20.8-12.1-39.1,1.3-55
	c3.6-4.2,10.3-2.6,11.7,2.7c29.4,117.5,146.3,190,266.5,159.8C642.7,584.6,702.7,519.7,722,443.3z"/>
<path class="st33" d="M486,866c-38.4,3.1-77.3,1.6-115.5,7c-15.4,2.2-36.3,4.7-48.5,14.5c-1.9,9.3,39.2,17.2,46.5,18.5
	c52.1,9.2,290.6,16,328-12c14.2-10.7-18.2-16.4-26-18c-42.9-8.8-90.8-7.2-134.5-9c3.4-6.2,6.2-17.2,10-25c90.2,3,184.1,2.6,273.5,15
	c43.7,6,138.2,24.8,32,50c-103.6,24.6-251.7,26.9-359,26c-93.6-0.8-254.1-3.4-341-31c-10.7-3.4-41.3-13-23-27
	c22.8-17.5,154.7-25.9,189-28c52.7-3.3,105.7-3.2,158.5-6C480,849.1,482.4,859.2,486,866z"/>
<path class="st34" d="M536,867c43.7,1.8,91.6,0.2,134.5,9c7.8,1.6,40.2,7.3,26,18c-37.4,28-275.9,21.2-328,12
	c-7.3-1.3-48.4-9.2-46.5-18.5c12.2-9.8,33.1-12.3,48.5-14.5c38.2-5.4,77.1-3.9,115.5-7C496.9,887,524.2,888.5,536,867z"/>
</svg>
